<?xml version="1.0" standalone="no"?>
<!DOCTYPE svg PUBLIC "-//W3C//DTD SVG 20010904//EN"
 "http://www.w3.org/TR/2001/REC-SVG-20010904/DTD/svg10.dtd">
<svg version="1.0" xmlns="http://www.w3.org/2000/svg"
 width="2000.000000pt" height="2000.000000pt" viewBox="0 0 2000.000000 2000.000000"
 preserveAspectRatio="xMidYMid meet">

<g transform="translate(0.000000,2000.000000) scale(0.100000,-0.100000)"
fill="#000000" stroke="none">
<path d="M9675 18808 c-641 -28 -1310 -133 -1905 -298 -1318 -365 -2465 -976
-3490 -1860 -184 -159 -670 -642 -830 -825 -440 -505 -798 -1020 -1135 -1635
-251 -456 -434 -881 -611 -1415 -301 -911 -454 -1864 -454 -2830 0 -212 4
-289 36 -685 76 -954 332 -1949 738 -2862 89 -201 287 -591 392 -773 47 -82
104 -183 126 -224 23 -40 103 -166 179 -280 568 -846 1244 -1562 2039 -2160
861 -647 1828 -1132 2844 -1427 103 -30 196 -58 205 -63 44 -23 596 -143 781
-170 895 -130 1556 -153 2315 -81 1322 127 2672 578 3773 1262 81 50 167 102
192 116 62 33 322 214 462 320 1132 857 1998 1894 2619 3132 894 1784 1161
3832 749 5758 -451 2116 -1624 3959 -3335 5242 -770 577 -1632 1025 -2555
1328 -1007 330 -2082 478 -3135 430z m-2045 -443 c7 -8 10 -21 7 -29 -3 -8
-80 -111 -171 -228 -144 -187 -171 -217 -221 -246 -32 -18 -59 -31 -61 -29 -5
5 73 116 204 287 61 79 109 146 107 148 -5 5 -160 -46 -370 -123 -501 -183
-1039 -449 -1588 -788 -98 -60 -180 -108 -182 -106 -2 2 -6 16 -10 30 -6 24 1
31 92 91 472 314 1100 632 1653 838 150 56 490 169 511 169 9 1 22 -6 29 -14z
m-765 -1234 l-27 -26 12 25 c20 40 34 54 38 40 3 -7 -8 -24 -23 -39z m-173
-314 c-165 -294 -529 -1054 -699 -1456 -527 -1252 -888 -2641 -1019 -3916 -10
-93 -21 -174 -25 -179 -10 -11 -142 22 -299 76 -679 233 -1319 711 -1724 1287
-161 230 -402 671 -367 671 5 0 43 -62 83 -137 41 -76 87 -158 103 -183 l29
-45 29 65 c16 36 39 76 51 90 13 14 40 54 61 89 37 62 38 64 19 78 -301 218
-492 562 -471 847 23 315 383 826 1076 1530 290 293 657 634 926 860 181 153
186 155 50 27 -383 -363 -741 -773 -972 -1116 -183 -272 -335 -573 -423 -835
-121 -361 -141 -700 -59 -998 19 -71 25 -81 43 -79 19 2 56 36 56 52 0 4 -9 5
-20 2 -22 -6 -23 -5 -14 17 5 13 16 15 53 10 118 -15 225 64 219 161 l-3 36
-45 -4 c-25 -2 -58 -9 -73 -16 -16 -6 -34 -11 -40 -11 -7 0 -21 -6 -32 -13
-86 -58 -140 -20 -78 54 16 18 21 29 13 25 -12 -7 -13 -6 -3 4 17 18 153 41
174 30 9 -5 19 -7 22 -3 4 3 14 0 23 -8 14 -12 21 -8 53 27 204 226 321 349
397 419 76 70 91 88 87 108 -5 27 25 93 53 119 38 33 117 60 161 54 37 -5 44
-2 62 22 11 15 28 34 36 43 19 20 66 31 79 19 4 -5 49 22 100 59 50 37 118 86
151 109 33 23 71 50 85 61 14 10 65 42 113 71 69 41 100 53 139 56 62 4 154
55 171 93 6 14 38 55 72 90 52 55 78 72 195 129 127 62 139 66 196 63 38 -1
76 4 98 13 44 18 117 76 111 87 -3 4 -1 10 5 14 5 3 10 17 10 30 0 20 10 27
78 50 42 15 83 29 91 32 11 4 10 0 -2 -18 -10 -13 -17 -28 -17 -34 0 -5 11 6
24 25 19 28 37 40 93 58 l70 22 30 68 c17 37 42 93 57 124 22 49 23 56 8 51
-9 -3 -22 -10 -29 -15 -15 -12 -26 22 -16 49 10 24 61 69 94 82 18 6 44 49
103 167 126 252 364 683 430 778 11 16 22 24 24 18 2 -7 -32 -76 -76 -155z
m-2022 -161 c0 -2 -8 -10 -17 -17 -16 -13 -17 -12 -4 4 13 16 21 21 21 13z
m2700 -307 c-19 -16 -47 -41 -62 -54 -35 -33 -57 -33 -50 0 7 40 66 85 110 85
l37 0 -35 -31z m500 -4 c0 -8 -4 -15 -8 -15 -5 0 -35 -20 -66 -45 -32 -25 -62
-45 -67 -45 -30 0 16 95 54 110 37 15 87 12 87 -5z m464 -21 c11 -4 -6 -21
-57 -60 -40 -30 -75 -54 -79 -54 -30 0 -5 65 38 99 26 21 67 27 98 15z m459
-41 c4 -3 -8 -19 -26 -36 -61 -55 -104 -86 -110 -80 -8 8 3 54 17 72 28 36
101 63 119 44z m437 -64 c0 -20 -94 -98 -105 -87 -10 9 32 74 55 85 31 16 50
16 50 2z m-1597 -185 c-6 -3 -40 -13 -75 -24 l-63 -18 236 -1 c214 -1 241 1
298 20 47 16 73 19 109 14 43 -7 45 -8 23 -17 -14 -5 -31 -6 -38 -4 -7 3 -13
0 -13 -5 0 -7 -11 -9 -25 -7 -13 3 -22 2 -20 -2 2 -4 55 -10 117 -14 62 -4
183 -16 269 -27 198 -25 463 -73 434 -79 -5 -1 -18 -3 -29 -5 -10 -2 -25 -13
-33 -24 -8 -12 -18 -19 -22 -17 -4 3 -25 1 -46 -5 -20 -6 -47 -12 -59 -15 -11
-2 -26 -10 -32 -18 -6 -9 -24 -20 -39 -26 -22 -8 -26 -13 -15 -20 10 -6 1 -14
-32 -30 -55 -26 -67 -58 -33 -90 35 -33 103 -28 157 13 51 39 68 70 70 130 l2
44 59 -13 c63 -13 78 -21 59 -32 -7 -5 -1 -12 18 -19 26 -10 30 -9 35 8 4 10
11 19 16 19 5 0 9 7 9 16 0 8 5 12 10 9 6 -3 10 -2 10 3 0 12 46 32 89 38 29
4 41 0 64 -21 15 -14 27 -31 27 -38 0 -7 -25 -26 -55 -42 -31 -17 -54 -33 -53
-36 4 -10 -33 -49 -47 -49 -6 0 -17 -16 -24 -35 -11 -33 -11 -38 11 -60 20
-21 32 -25 88 -25 48 0 71 5 89 19 20 15 30 17 60 9 48 -13 50 -16 21 -38
l-25 -20 31 0 c16 0 34 -4 40 -8 5 -5 37 -17 70 -27 53 -15 62 -21 62 -42 0
-13 1 -25 3 -27 2 -1 66 -24 142 -50 75 -27 137 -51 137 -54 0 -2 -7 -10 -15
-16 -12 -9 -8 -11 20 -14 21 -1 34 2 30 7 -6 10 44 -1 66 -14 10 -7 83 -15
132 -16 9 0 17 -4 17 -8 0 -5 9 -11 20 -14 33 -8 26 -46 -10 -53 -16 -4 -30
-10 -30 -15 0 -4 -10 -11 -22 -15 -33 -10 -58 -34 -58 -57 0 -11 -3 -17 -7
-14 -11 11 -53 -43 -53 -68 0 -14 11 -33 28 -45 57 -46 165 -5 206 78 9 18 16
42 16 53 0 19 2 18 50 -6 27 -14 61 -25 75 -25 17 0 25 -6 25 -17 1 -13 29 49
30 65 0 1 5 2 12 2 6 0 19 7 28 15 24 22 106 31 135 15 47 -25 38 -53 -26 -83
-14 -7 -45 -29 -67 -49 -35 -31 -42 -45 -44 -80 -3 -42 -2 -43 44 -68 l47 -25
56 20 c31 10 65 29 75 42 l18 23 38 -22 c33 -19 35 -23 18 -30 -15 -7 -14 -8
5 -4 15 3 41 -5 68 -21 35 -20 41 -28 32 -39 -9 -12 -5 -14 25 -14 20 0 36 -4
36 -10 0 -5 21 -21 48 -34 61 -32 144 -91 136 -98 -3 -4 5 -9 18 -13 13 -4 63
-37 111 -73 88 -65 89 -65 149 -63 69 3 118 -19 98 -45 -10 -11 -9 -15 4 -20
20 -8 11 -24 -14 -24 -29 0 -102 -43 -110 -65 -5 -11 -17 -28 -29 -37 -50 -42
-33 -96 36 -119 66 -22 154 18 174 79 10 30 13 32 27 19 10 -8 45 -24 80 -35
l62 -21 0 24 c0 44 89 116 134 109 46 -7 64 -15 70 -31 4 -9 1 -20 -6 -25 -7
-4 -8 -8 -3 -8 6 -1 -9 -11 -31 -23 -45 -24 -81 -62 -108 -115 -14 -28 -15
-37 -4 -59 17 -35 78 -56 139 -48 29 4 49 2 53 -4 4 -6 34 -22 67 -37 48 -22
57 -30 47 -39 -7 -7 -83 -54 -168 -105 -292 -176 -641 -417 -896 -620 -236
-189 -359 -296 -648 -569 -894 -840 -2077 -1373 -3366 -1517 -168 -18 -688
-30 -873 -19 l-126 7 -3 31 -3 30 -32 -27 c-34 -28 -40 -29 -249 -1 l-52 7 4
37 c57 526 83 719 139 1046 37 214 105 560 129 653 8 32 31 130 52 220 31 134
43 168 66 194 19 21 28 43 28 65 0 20 -4 32 -10 28 -15 -9 -13 1 29 151 26 91
46 142 58 151 39 27 63 59 63 85 0 29 -17 37 -38 16 -13 -13 11 80 56 212 20
60 35 88 51 96 44 23 71 56 71 91 0 37 -14 42 -42 16 -14 -12 -5 22 34 137 52
150 54 154 92 174 53 28 81 67 72 100 -7 30 -22 33 -48 9 -17 -15 -17 -14 1
38 10 30 35 96 56 147 35 86 40 94 82 115 28 13 53 36 66 59 19 32 20 39 8 61
-9 18 -19 23 -34 19 -24 -6 -27 -16 40 138 36 84 52 110 69 114 35 9 83 55 99
93 19 44 19 40 -10 67 l-25 23 49 105 c42 90 54 107 83 118 53 22 109 85 115
130 6 43 9 44 129 56 44 5 73 13 85 25 31 31 58 40 124 42 49 2 68 -2 81 -15
16 -16 20 -16 58 5 25 13 69 24 111 28 87 7 184 9 168 3z m-1856 -50 c2 -8
-105 -74 -121 -74 -3 0 0 12 7 27 6 15 29 34 52 44 41 19 57 20 62 3z m3825
-252 c11 -11 4 -19 -92 -97 -27 -22 -49 -46 -49 -52 -1 -15 -11 -16 -26 -5
-15 10 -17 59 -4 84 16 31 42 58 55 58 6 0 17 6 23 14 13 16 77 14 93 -2z
m443 -82 c7 -11 -41 -59 -87 -87 -16 -10 -28 -21 -28 -26 0 -4 -4 -6 -8 -3 -5
3 -7 19 -4 36 8 55 105 116 127 80z m-4379 -24 c14 -15 14 -17 0 -32 -9 -8
-16 -12 -16 -8 0 4 -8 0 -17 -8 -10 -9 -36 -25 -58 -35 -69 -34 -110 -58 -113
-66 -8 -16 -32 17 -32 43 0 38 31 74 91 104 57 28 118 29 145 2z m-546 -26 c0
-4 -13 -13 -29 -20 -16 -6 -44 -23 -62 -36 -37 -27 -59 -31 -59 -9 0 17 61 68
92 76 26 6 58 0 58 -11z m5351 -60 c-13 -11 -29 -20 -36 -20 -8 0 -17 -9 -20
-21 -4 -11 -9 -18 -12 -16 -8 9 27 68 37 62 6 -4 10 -1 10 4 0 6 10 11 23 11
l22 -1 -24 -19z m-731 -260 c0 -5 -5 -10 -11 -10 -5 0 -7 5 -4 10 3 6 8 10 11
10 2 0 4 -4 4 -10z m-4767 -22 c39 -19 33 -34 -20 -58 -58 -26 -97 -46 -142
-72 -27 -16 -36 -17 -42 -6 -24 36 18 98 86 129 47 22 81 24 118 7z m-559 -29
c-6 -11 -67 -40 -93 -45 -30 -6 28 38 60 46 19 4 35 8 37 9 2 1 0 -4 -4 -10z
m6465 -208 l23 -18 -43 -33 c-24 -18 -61 -51 -81 -73 -28 -29 -42 -37 -55 -32
-10 5 -22 7 -26 6 -9 -2 3 72 13 79 4 3 13 16 19 28 12 23 82 62 111 62 8 0
26 -9 39 -19z m456 -128 c0 -6 -25 -28 -55 -49 -30 -21 -60 -44 -65 -51 -8
-11 -11 -6 -13 21 -2 27 4 43 25 66 23 26 33 31 68 28 22 -2 40 -8 40 -15z
m-7040 -13 c10 -11 16 -21 14 -23 -2 -2 -20 -10 -39 -19 -19 -9 -64 -30 -100
-48 l-65 -31 -3 31 c-4 39 18 66 73 91 53 25 97 24 120 -1z m6420 -38 c-3 -3
-11 0 -18 7 -9 10 -8 11 6 5 10 -3 15 -9 12 -12z m1026 -81 c-11 -10 -18 -21
-14 -25 3 -3 2 -6 -4 -6 -33 0 -17 45 17 47 l22 2 -21 -18z m-8157 -236 c4
-11 -3 -19 -22 -26 -15 -6 -40 -17 -55 -25 -32 -16 -57 -18 -57 -6 0 14 43 49
75 60 42 15 52 14 59 -3z m7815 -206 c-14 -8 -29 -3 -29 11 0 4 9 6 21 3 15
-4 17 -8 8 -14z m775 -112 c18 -13 17 -15 -15 -38 -19 -13 -49 -38 -68 -56
-19 -19 -38 -30 -42 -26 -25 26 1 96 44 117 39 19 58 20 81 3z m-8694 -53 c0
-8 -4 -12 -10 -9 -5 3 -10 1 -10 -4 0 -6 -3 -11 -7 -10 -14 2 -55 -13 -100
-38 -66 -35 -90 -31 -83 16 3 24 62 66 109 77 51 12 101 -3 101 -32z m9109
-531 c12 -10 21 -22 21 -28 0 -11 -60 -55 -76 -55 -17 0 -67 -64 -76 -99 -17
-59 38 -111 117 -111 22 0 46 4 54 9 25 16 178 -118 225 -197 21 -37 40 -69
42 -70 1 -2 21 -6 44 -9 63 -9 134 -87 79 -88 -8 -1 -24 -6 -36 -13 -12 -7
-29 -12 -38 -12 -9 0 -24 -13 -33 -30 -9 -16 -21 -30 -25 -30 -5 0 -5 -4 -2
-10 3 -5 0 -10 -7 -10 -8 0 -14 -14 -15 -34 -2 -28 3 -40 34 -66 33 -29 41
-32 81 -26 25 3 61 15 80 26 19 12 36 20 37 18 1 -2 11 -19 21 -38 35 -66 217
-280 238 -280 28 0 76 -49 76 -77 0 -13 -3 -22 -7 -21 -5 0 -15 -2 -23 -5 -8
-4 -27 -11 -42 -16 -15 -6 -35 -23 -45 -38 -10 -15 -23 -32 -30 -38 -36 -31 0
-110 58 -125 20 -6 49 -8 65 -5 16 2 38 5 48 7 30 5 78 -87 121 -230 45 -150
43 -148 60 -126 30 42 134 46 176 8 21 -19 26 -46 7 -42 -32 6 -136 -79 -142
-116 -1 -8 -8 -21 -15 -29 -16 -20 7 -68 41 -84 17 -8 35 -36 61 -100 20 -49
37 -94 37 -100 0 -19 -18 -25 -40 -13 -16 8 -20 8 -20 -4 0 -9 -12 -16 -32
-18 -29 -3 -33 -6 -30 -30 2 -24 -2 -28 -33 -34 -19 -3 -35 -12 -35 -19 0 -7
-3 -20 -6 -28 -10 -27 46 -76 91 -80 44 -4 114 18 131 41 15 21 20 1 44 -203
11 -93 30 -227 41 -296 11 -70 22 -155 25 -190 l6 -64 43 -1 c27 -1 54 -9 74
-23 36 -26 42 -61 11 -61 -11 0 -20 -4 -20 -10 0 -5 -7 -10 -16 -10 -20 0 -94
-66 -111 -98 -20 -37 -15 -69 12 -90 22 -17 25 -28 25 -82 0 -51 3 -63 18 -66
18 -5 42 -47 42 -74 0 -11 -15 -21 -42 -29 -72 -22 -88 -30 -88 -46 0 -8 -11
-20 -24 -26 -14 -7 -22 -17 -20 -24 3 -7 1 -16 -5 -20 -20 -11 -12 -38 21 -72
18 -18 42 -33 55 -33 22 0 23 -2 17 -74 -5 -50 -3 -75 5 -80 12 -8 15 -56 4
-57 -5 0 -19 -2 -32 -3 -14 -2 -27 -8 -29 -14 -2 -7 -14 -12 -27 -12 -26 0
-99 -64 -109 -97 -9 -29 12 -70 43 -83 15 -6 52 -11 84 -12 31 -1 57 -5 57
-10 0 -4 -3 -8 -7 -8 -5 0 -156 -25 -338 -55 -1036 -174 -2106 -293 -3130
-349 -599 -33 -871 -40 -1570 -40 -1265 1 -2205 47 -3150 154 -143 17 -263 30
-267 30 -9 0 -16 71 -27 269 -8 138 -8 166 5 178 19 20 18 80 -2 91 -13 7 -17
37 -21 164 l-6 156 36 -1 c48 -1 87 34 87 78 0 46 -8 48 -49 15 -19 -17 -44
-30 -53 -30 -17 0 -18 17 -17 243 1 267 11 552 20 561 3 3 32 1 65 -4 224 -37
682 -56 978 -41 483 25 747 66 1298 202 578 143 1114 361 1588 645 365 219
634 425 1350 1034 513 437 1077 830 1539 1073 98 52 116 58 133 48 17 -10 22
-9 33 5 16 22 81 44 117 39 15 -3 36 -12 47 -22z m-10079 -175 c21 -45 27 -89
11 -72 -17 17 -51 114 -40 114 5 0 19 -19 29 -42z m10513 24 c17 -7 17 -8 -1
-27 -10 -11 -35 -29 -55 -40 -20 -11 -37 -23 -37 -28 0 -4 -4 -5 -10 -2 -20
13 -10 59 18 82 28 23 53 27 85 15z m415 -609 c2 -14 -3 -23 -16 -27 -11 -4
-39 -24 -62 -46 -24 -22 -45 -40 -47 -40 -2 0 -8 11 -13 25 -19 49 45 117 105
112 22 -1 31 -8 33 -24z m-11167 -445 c8 -7 13 -12 11 -11 -2 1 -29 -9 -59
-23 -67 -29 -73 -29 -73 -5 0 41 86 68 121 39z m355 -263 c172 -213 424 -457
639 -621 451 -343 912 -572 1490 -739 l150 -43 -1 -39 c0 -21 -4 -154 -9 -295
-4 -142 -8 -394 -9 -560 l-1 -302 -42 -9 c-24 -4 -43 -13 -43 -18 0 -18 48
-59 69 -59 24 0 28 -26 35 -207 4 -120 4 -122 -14 -100 l-18 22 -30 -28 c-18
-17 -44 -30 -67 -33 -21 -2 -41 -7 -46 -9 -11 -8 20 -64 43 -76 29 -15 86 -2
113 27 l22 24 6 -42 c3 -24 5 -43 4 -44 -4 -4 -402 67 -592 106 -739 151
-1410 355 -2032 617 -126 53 -134 58 -131 82 2 18 8 25 21 23 11 -2 17 4 17
16 0 21 -25 36 -41 26 -5 -3 -9 4 -9 15 0 21 16 29 22 11 2 -5 9 -6 16 -2 9 7
8 16 -6 45 -10 21 -21 34 -25 31 -4 -4 -7 3 -7 15 0 12 4 19 10 16 6 -3 15 6
20 20 13 33 13 48 1 40 -5 -3 -12 -1 -15 4 -4 5 4 11 16 13 14 2 22 9 19 18
-2 8 -5 23 -6 34 -1 10 -9 22 -18 28 -10 5 -15 13 -12 19 4 5 2 9 -4 9 -5 0
-9 37 -10 85 0 67 3 85 15 85 8 0 14 3 15 8 0 4 2 18 5 31 4 24 4 24 -17 5
l-22 -19 7 110 c18 290 68 636 131 910 32 138 34 153 21 189 -12 36 -11 47 21
155 45 151 80 256 139 414 37 100 50 125 59 115 6 -7 52 -62 101 -123z m11204
108 c-1 -22 -85 -87 -100 -78 -23 14 3 73 40 88 32 12 60 7 60 -10z m-11645
-201 c18 -1 17 -22 -2 -22 -10 0 -41 -11 -70 -24 -52 -24 -52 -25 -59 -4 -4
12 0 26 9 35 19 19 77 32 97 22 8 -4 19 -7 25 -7z m-92 -361 c20 -2 2 -20 -42
-39 -49 -23 -81 -21 -81 5 0 18 58 43 90 38 14 -2 28 -4 33 -4z m32 -21 c3 -5
1 -10 -4 -10 -6 0 -11 5 -11 10 0 6 2 10 4 10 3 0 8 -4 11 -10z m-121 -346
c26 -10 18 -21 -26 -38 -43 -16 -88 -18 -88 -5 0 4 12 17 26 28 27 21 58 26
88 15z m12176 -114 c0 -11 -4 -20 -8 -20 -5 0 -17 -8 -28 -19 -20 -18 -58 -41
-68 -41 -16 0 -4 61 16 80 30 28 88 28 88 0z m-12230 -265 c10 -12 9 -15 -7
-15 -10 0 -28 -7 -41 -15 -17 -13 -26 -14 -44 -4 l-22 12 23 18 c28 23 74 25
91 4z m12170 -150 c17 -9 30 -19 30 -23 0 -4 -16 -16 -36 -27 -43 -23 -104
-79 -104 -95 0 -7 -7 -10 -15 -6 -9 3 -15 -1 -15 -11 0 -13 -3 -13 -15 -3 -10
8 -15 31 -15 69 0 34 4 51 9 43 6 -11 9 -9 14 7 6 24 63 61 95 61 13 0 36 -7
52 -15z m-12245 -225 c4 -6 3 -10 -2 -9 -4 1 -16 -1 -25 -5 -9 -4 -25 -6 -35
-3 -15 3 -14 6 7 15 32 14 47 14 55 2z m-60 -380 c-27 -12 -35 -12 -35 0 0 6
12 10 28 9 24 0 25 -1 7 -9z m355 -250 c0 -5 -4 -10 -10 -10 -5 0 -10 5 -10
10 0 6 5 10 10 10 6 0 10 -4 10 -10z m12244 -185 c-7 -17 -40 -29 -55 -19 -7
4 -1 12 17 20 39 17 44 17 38 -1z m-54 -34 c0 -6 -4 -13 -10 -16 -5 -3 -10 1
-10 9 0 9 5 16 10 16 6 0 10 -4 10 -9z m-43 -415 c-12 -11 -34 -29 -48 -38
-26 -16 -26 -16 -21 8 6 32 46 64 72 57 20 -5 20 -6 -3 -27z m-12207 -101 c36
-13 91 -35 123 -49 103 -47 607 -219 893 -305 452 -136 1114 -288 1614 -371
102 -17 194 -33 205 -35 19 -4 22 -19 39 -167 10 -90 32 -264 50 -386 l33
-224 -24 -11 c-17 -7 -23 -18 -23 -40 0 -32 33 -77 56 -77 13 0 15 -6 39 -145
9 -49 18 -98 21 -107 4 -12 -2 -17 -23 -20 -17 -2 -32 -11 -38 -25 -8 -18 -18
-23 -46 -23 -40 0 -53 -12 -57 -51 -2 -19 6 -34 28 -53 46 -38 104 -33 149 12
14 13 18 4 36 -84 l20 -99 -85 -18 c-72 -15 -315 -73 -389 -94 -16 -4 -22 -2
-18 4 4 6 -1 17 -10 24 -10 8 -14 9 -10 2 4 -6 2 -15 -4 -19 -9 -5 -10 0 -5
17 17 60 18 87 2 111 -9 14 -14 27 -10 30 3 3 1 9 -5 13 -6 3 -11 1 -11 -6 0
-8 -3 -9 -14 0 -7 6 -24 11 -37 10 -13 0 -39 0 -57 0 -19 0 -35 -6 -38 -13 -3
-8 -16 -17 -30 -20 -14 -4 -24 -14 -24 -24 0 -15 -6 -18 -30 -14 -16 2 -30 7
-30 11 -1 3 -5 25 -9 48 -5 26 -4 44 2 46 5 1 7 12 5 22 -4 16 -8 14 -18 -14
-10 -27 -14 -31 -22 -17 -10 17 -49 42 -47 29 1 -4 -1 -16 -6 -26 -7 -17 -9
-17 -31 4 -14 13 -24 17 -24 10 0 -7 -4 -10 -9 -7 -5 3 -7 23 -4 45 6 45 -18
81 -54 81 -12 0 -25 5 -28 10 -4 7 -12 7 -25 0 -10 -5 -30 -10 -44 -10 -14 0
-26 -5 -26 -10 0 -6 -10 -15 -23 -21 -19 -9 -54 -64 -50 -79 1 -3 5 -13 8 -23
5 -12 3 -17 -6 -15 -8 2 -13 -3 -11 -9 3 -19 -15 -15 -22 4 -6 15 -8 15 -17 3
-8 -13 -10 -13 -19 0 -5 8 -10 11 -10 5 -1 -5 -9 5 -18 23 -18 33 -18 33 -36
13 -18 -20 -20 -20 -33 -3 -8 9 -12 12 -9 5 13 -25 -18 -25 -36 0 l-19 26 -34
-20 c-33 -20 -34 -20 -44 -1 -8 15 -19 19 -46 16 -19 -1 -35 1 -35 6 0 5 -7 7
-15 4 -10 -4 -15 0 -15 10 0 13 -4 15 -19 6 -17 -9 -24 -4 -48 27 -15 21 -34
44 -40 51 -7 7 -13 18 -13 23 0 5 -11 3 -24 -6 -23 -15 -24 -14 -86 80 -59 90
-62 96 -46 113 23 26 22 114 -1 134 -33 28 -108 39 -168 24 -11 -2 -23 -5 -27
-5 -5 -1 -8 -8 -8 -16 0 -14 -3 -14 -24 0 -28 19 -45 97 -26 120 8 10 -1 38
-43 121 -31 62 -57 102 -61 96 -23 -38 -80 114 -72 194 6 64 -7 92 -51 111
-55 23 -183 17 -183 -9 0 -16 -21 3 -30 28 -12 30 21 99 51 107 14 4 17 10 12
24 -3 10 -10 20 -14 23 -3 3 -22 53 -41 112 -19 59 -38 105 -41 101 -4 -3 -7
-1 -7 6 0 6 -7 11 -17 9 -12 -2 -22 15 -41 74 -14 42 -28 76 -32 75 -4 -1 -18
12 -32 28 -18 21 -33 61 -49 133 l-23 102 24 17 24 17 -45 19 c-24 10 -84 34
-134 52 -77 28 -294 121 -303 130 -1 1 0 9 4 18 5 14 11 14 57 -5 29 -11 81
-31 117 -43z m13713 -201 c9 -4 17 -9 17 -13 0 -8 -479 -126 -882 -216 -318
-71 -857 -179 -1103 -220 -88 -15 -167 -34 -176 -41 -8 -8 -24 -14 -35 -14
-29 -1 -92 -64 -103 -104 -9 -33 -7 -38 21 -61 16 -14 36 -25 43 -25 24 0 27
-19 10 -71 -16 -47 -16 -51 1 -70 14 -15 15 -24 7 -42 -11 -24 -68 -57 -98
-57 -20 0 -84 -53 -102 -84 -24 -42 -25 -47 -8 -72 16 -25 15 -27 -24 -90 -23
-36 -41 -68 -41 -70 0 -3 14 -3 30 1 39 9 83 -11 98 -44 16 -33 15 -44 -2 -38
-8 3 -22 -3 -31 -13 -9 -10 -28 -20 -43 -23 -15 -3 -48 -26 -74 -51 -29 -30
-52 -44 -61 -40 -12 4 -24 -10 -45 -53 -17 -32 -64 -97 -105 -144 -42 -48 -74
-90 -71 -93 2 -3 1 -4 -2 -2 -13 10 -102 -104 -183 -235 -74 -120 -93 -144
-113 -145 -13 0 -35 -8 -48 -17 -14 -9 -31 -17 -40 -17 -19 -1 -81 -58 -97
-91 -20 -41 -21 -53 -6 -70 12 -14 8 -24 -32 -78 -25 -33 -45 -63 -45 -65 0
-3 21 -8 47 -12 44 -6 82 -33 83 -59 0 -6 -27 -20 -59 -33 -39 -15 -72 -37
-96 -63 -30 -33 -38 -38 -55 -29 -22 12 -35 50 -27 81 3 11 2 19 -1 17 -4 -2
-18 -10 -32 -17 -14 -7 -52 -46 -85 -87 -46 -57 -75 -82 -125 -108 -62 -33
-114 -85 -115 -115 0 -8 -7 -17 -15 -21 -19 -10 -78 -35 -107 -47 -23 -9 -87
-63 -225 -189 -70 -64 -99 -84 -145 -98 -32 -10 -65 -24 -73 -31 -8 -7 -35
-15 -60 -18 -63 -6 -128 -33 -160 -65 -38 -39 -72 -62 -90 -62 -23 -1 -58 -31
-42 -37 18 -7 -25 -38 -69 -51 -20 -5 -70 -32 -110 -58 -94 -62 -222 -124
-255 -124 -12 0 -8 -10 15 -35 27 -31 33 -65 12 -65 -4 0 -51 42 -106 93 -389
363 -674 582 -1059 813 -467 282 -1077 523 -1771 700 -115 29 -202 53 -192 54
9 0 17 4 17 8 0 10 -196 52 -405 86 -365 60 -811 86 -1181 68 -135 -7 -249
-10 -253 -7 -5 2 -25 90 -46 195 -37 188 -38 191 -20 224 16 30 17 38 5 66 -9
22 -18 30 -30 27 -15 -4 -21 17 -44 157 -32 194 -32 194 -8 173 45 -41 125
-23 139 31 10 38 10 45 1 65 -12 23 -27 22 -50 -5 -12 -14 -35 -24 -68 -28
l-49 -6 -11 65 c-14 88 -50 374 -47 376 1 2 30 -1 64 -5 53 -7 68 -13 93 -40
26 -28 35 -31 62 -26 17 3 40 14 50 23 17 15 39 15 316 -10 1012 -91 2273
-133 3277 -108 516 13 604 18 1155 55 1479 101 2443 209 3500 392 346 60 1220
244 1655 348 55 13 105 22 110 20 6 -2 18 -7 28 -10z m-13528 -121 c11 -6 17
-15 13 -18 -4 -4 -2 -19 3 -33 10 -25 9 -25 -9 -9 -10 9 -22 14 -26 10 -7 -7
-9 -8 -74 -22 l-43 -9 3 32 c5 51 80 79 133 49z m-59 -430 c-3 -16 -13 -18
-57 -14 -22 2 13 31 36 31 16 0 22 -5 21 -17z m11904 7 c13 -8 13 -10 -1 -10
-9 0 -22 -7 -29 -15 -7 -8 -25 -21 -41 -29 -26 -13 -29 -13 -29 3 0 44 62 76
100 51z m-160 -446 c0 -3 -7 -12 -15 -20 -12 -13 -15 -13 -15 -1 0 7 3 17 7
20 8 8 23 9 23 1z m-11267 -151 c15 -13 19 -14 13 -3 -5 9 -2 8 7 -2 8 -10 18
-14 22 -10 5 4 5 1 1 -6 -5 -7 -14 -11 -21 -8 -7 2 -21 -1 -31 -8 -22 -15 -76
-27 -69 -15 3 4 0 9 -6 11 -19 6 7 46 33 51 13 2 25 5 27 6 3 0 13 -7 24 -16z
m10609 -583 c21 -20 21 -20 2 -35 -10 -8 -24 -15 -31 -15 -7 0 -27 -13 -45
-29 -18 -15 -43 -33 -55 -40 -31 -16 -50 18 -33 59 28 68 118 101 162 60z
m-10143 -39 c11 -11 22 -16 26 -13 3 4 3 -2 -1 -11 -3 -10 -9 -16 -12 -13 -2
3 -14 -1 -26 -9 -11 -8 -38 -15 -59 -15 -36 0 -38 2 -35 27 5 48 72 69 107 34z
m466 -167 c24 -10 45 -56 34 -77 -8 -13 -15 -15 -28 -7 -13 7 -29 4 -57 -10
-21 -11 -44 -20 -51 -20 -7 0 -13 -5 -13 -11 0 -7 -9 0 -20 13 -18 24 -19 27
-3 66 9 23 20 39 24 36 5 -3 9 0 9 5 0 12 78 15 105 5z m424 -228 c12 -9 13
-8 6 4 -6 12 -5 13 5 3 15 -14 25 -57 12 -49 -5 3 -22 -3 -39 -14 -17 -10 -44
-20 -59 -22 -25 -3 -29 1 -32 26 -7 58 59 90 107 52z m9090 -36 c-13 -8 -34
-25 -48 -37 -45 -43 -83 -18 -46 30 20 27 86 48 104 34 11 -9 9 -14 -10 -27z
m-6359 -334 c687 -78 1290 -245 1898 -524 275 -127 606 -315 831 -474 88 -61
105 -78 108 -103 6 -43 25 -58 76 -60 41 -1 56 -10 164 -97 153 -125 273 -237
252 -238 -23 0 -77 -28 -133 -68 -44 -32 -50 -34 -61 -19 -6 9 -15 14 -18 11
-3 -4 -5 14 -3 40 3 56 -3 57 -102 17 l-71 -29 2 40 c1 31 -4 44 -22 59 -31
25 -54 24 -89 -6 -17 -14 -34 -25 -39 -25 -15 0 -87 -42 -101 -59 -7 -9 -17
-25 -21 -36 -7 -16 -35 -29 -110 -52 -89 -27 -106 -29 -153 -21 -42 8 -70 6
-133 -8 l-80 -18 43 -9 c31 -6 42 -12 38 -22 -3 -8 -1 -17 4 -20 19 -12 9 -23
-42 -50 -29 -15 -60 -33 -69 -41 -8 -8 -20 -14 -26 -14 -6 0 -16 -7 -23 -15
-21 -26 -34 -1 -33 62 1 46 6 60 25 76 18 14 19 17 5 13 -10 -3 -47 0 -81 8
-43 10 -74 12 -101 6 -21 -5 -43 -6 -48 -3 -39 24 -153 -9 -210 -63 l-28 -26
-25 23 c-13 12 -24 32 -24 45 0 21 -4 22 -77 20 l-78 -1 -3 41 c-2 32 -9 43
-30 55 -29 17 -37 17 -97 6 -26 -5 -56 -22 -83 -47 -41 -38 -84 -52 -96 -31
-3 5 -25 8 -48 7 -24 -1 -62 4 -86 12 -34 11 -42 18 -35 31 13 28 9 109 -7
125 -27 26 -66 30 -88 8 -13 -13 -28 -19 -41 -15 -14 4 -21 1 -21 -10 0 -8
-12 -17 -29 -20 -18 -4 -30 -14 -34 -28 -6 -21 -10 -22 -68 -15 -34 3 -76 6
-93 6 -21 0 -27 3 -18 9 10 6 1 14 -32 27 -33 14 -44 23 -40 34 34 81 26 127
-24 152 -26 14 -31 13 -49 -1 -11 -9 -23 -24 -27 -35 -4 -11 -12 -16 -22 -12
-26 10 -103 -51 -104 -82 0 -8 -7 -11 -17 -9 -10 3 -40 8 -68 12 -27 4 -62 13
-77 21 -15 8 -35 14 -45 14 -10 0 -29 9 -42 19 -19 15 -21 19 -8 24 36 14 64
122 41 155 -36 51 -84 51 -110 0 -12 -24 -20 -29 -39 -24 -29 7 -55 -2 -55
-20 0 -7 -7 -17 -16 -22 -11 -6 -15 -17 -12 -30 5 -18 -2 -15 -46 17 -29 22
-77 46 -111 55 -93 26 -89 24 -74 42 21 25 28 78 16 125 -12 48 -102 62 -153
25 -16 -12 -16 -17 4 -72 27 -77 192 -470 272 -649 109 -243 521 -1067 577
-1153 16 -26 12 -38 -10 -29 -41 16 -445 793 -632 1217 -209 475 -375 918
-450 1205 -19 72 -57 211 -84 310 -72 265 -69 243 -24 248 94 11 753 -2 893
-17z m-1439 -165 c40 -148 43 -165 30 -157 -13 8 -51 -2 -50 -12 3 -20 -2 -32
-11 -27 -16 10 -11 -38 6 -64 16 -22 16 -23 -5 -12 -12 7 -49 46 -83 87 -33
40 -64 74 -68 74 -13 0 -49 80 -36 80 6 0 4 6 -5 13 -9 7 -18 28 -22 48 l-5
37 91 20 c51 11 101 20 111 19 16 -2 25 -22 47 -106z m7063 -267 c13 -5 14 -9
5 -20 -6 -8 -15 -14 -20 -14 -5 0 -30 -13 -56 -30 -26 -16 -51 -30 -55 -30
-19 0 -6 44 21 71 29 29 68 37 105 23z m-7489 -26 c14 -6 25 -15 25 -19 0 -8
-28 -21 -53 -24 -11 -1 -22 -6 -25 -12 -4 -5 -15 -10 -24 -10 -26 0 -23 43 4
61 27 19 39 20 73 4z m478 -4 c17 -2 31 -5 32 -6 4 -7 65 -217 65 -223 0 -4
-6 -2 -14 4 -7 6 -13 23 -13 36 0 16 -20 47 -52 85 -29 33 -50 60 -46 60 3 0
-2 14 -11 31 -10 20 -11 28 -3 24 6 -5 25 -10 42 -11z m21 -145 c15 -12 25
-24 22 -27 -3 -3 -1 -11 4 -17 15 -19 -14 -39 -37 -27 -14 8 -32 2 -79 -24
-53 -30 -63 -32 -74 -20 -16 21 -4 70 27 106 20 25 32 30 68 30 28 0 51 -7 69
-21z m6372 -186 c16 -16 16 -18 -1 -28 -10 -5 -40 -24 -67 -42 -65 -43 -82
-45 -86 -11 -2 18 7 37 28 62 26 30 39 36 70 36 23 0 45 -7 56 -17z m-625
-364 c11 -5 17 -14 14 -19 -8 -13 -143 -100 -156 -100 -6 0 -9 18 -7 42 3 40
6 45 48 65 50 25 72 28 101 12z m-5461 -156 c0 -18 -17 -16 -24 3 -8 22 4 40
15 23 5 -8 9 -20 9 -26z m5122 -36 c46 -40 99 -85 118 -101 50 -41 66 -66 49
-76 -14 -9 -69 34 -212 162 -58 52 -75 73 -65 79 21 14 24 12 110 -64z m-4166
-221 c22 -16 24 -14 -38 -49 -55 -32 -68 -33 -68 -9 0 26 27 60 53 65 12 2 25
5 28 6 3 0 14 -5 25 -13z m449 -146 c13 -15 14 -20 5 -20 -8 0 -31 -12 -52
-27 -34 -23 -41 -25 -53 -12 -13 13 -13 18 1 38 15 21 46 39 70 40 6 1 19 -8
29 -19z m2369 -96 c17 -6 22 -34 7 -34 -4 0 -25 -12 -46 -26 -21 -14 -49 -30
-62 -35 -20 -7 -23 -6 -23 17 0 52 72 98 124 78z m-1934 -34 c13 -9 10 -14
-15 -35 -16 -14 -43 -25 -58 -25 -24 0 -26 2 -17 19 11 22 49 51 65 51 5 0 17
-5 25 -10z m438 -142 c-5 -15 -56 -29 -63 -18 -7 11 24 29 48 30 10 0 17 -5
15 -12z"/>
<path d="M5984 15485 c-4 -8 -11 -15 -18 -15 -15 0 -48 -70 -50 -106 -1 -16
-7 -39 -14 -51 -10 -19 -10 -22 1 -17 8 3 25 33 40 67 14 34 33 79 41 100 9
20 14 37 11 37 -3 0 -8 -7 -11 -15z"/>
<path d="M5388 15126 c-86 -45 -98 -54 -98 -77 0 -36 21 -51 72 -51 87 -2 173
67 166 133 -5 53 -31 53 -140 -5z"/>
<path d="M5802 15058 c-7 -7 -12 -23 -11 -37 1 -24 2 -24 15 8 16 36 15 48 -4
29z"/>
<path d="M4715 14761 c-76 -39 -90 -50 -93 -73 -10 -86 165 -70 225 21 27 40
29 64 7 85 -22 23 -38 19 -139 -33z"/>
<path d="M5279 14751 c-13 -10 -47 -28 -76 -41 -65 -28 -78 -42 -63 -69 25
-47 112 -38 172 18 29 26 41 45 41 65 0 46 -34 58 -74 27z"/>
<path d="M5644 14646 c-3 -8 -4 -23 -2 -33 3 -13 7 -9 15 15 12 31 -1 48 -13
18z"/>
<path d="M4113 14450 c-12 -11 -28 -20 -35 -20 -25 0 -120 -50 -139 -72 -20
-25 -25 -43 -9 -33 6 3 10 -1 10 -10 0 -23 47 -37 107 -33 79 7 154 72 159
139 2 33 1 34 -41 43 -23 5 -36 2 -52 -14z"/>
<path d="M4600 14390 c-25 -16 -51 -30 -58 -30 -27 0 -72 -31 -72 -49 0 -28
35 -53 74 -53 91 0 190 118 127 152 -24 12 -17 14 -71 -20z"/>
<path d="M5135 14360 c-12 -4 -27 -15 -34 -24 -7 -9 -32 -21 -55 -27 -56 -15
-68 -26 -55 -51 45 -84 223 6 184 95 -8 19 -11 19 -40 7z"/>
<path d="M5507 14249 c-18 -11 -23 -44 -8 -53 8 -5 35 53 28 60 -1 1 -10 -2
-20 -7z"/>
<path d="M3955 14060 c-16 -11 -52 -27 -80 -36 -62 -21 -75 -31 -75 -59 0 -20
18 -34 64 -49 31 -10 98 14 133 49 39 39 45 88 14 105 -25 13 -21 13 -56 -10z"/>
<path d="M4455 13995 c-22 -14 -57 -29 -78 -35 -21 -6 -41 -18 -44 -27 -9 -23
32 -53 72 -53 62 0 142 80 118 119 -15 23 -25 23 -68 -4z"/>
<path d="M4966 13941 c-21 -17 -54 -35 -74 -42 -53 -17 -55 -19 -36 -40 12
-13 31 -19 60 -19 55 0 107 41 107 84 0 45 -16 50 -57 17z"/>
<path d="M5366 13835 c-19 -14 -19 -15 -1 -35 18 -20 20 -20 26 -3 10 24 11
53 2 53 -5 0 -17 -7 -27 -15z"/>
<path d="M3797 13666 c-21 -13 -56 -26 -76 -30 -21 -3 -43 -11 -49 -18 -17
-22 4 -55 42 -68 48 -16 96 0 136 46 32 37 38 62 18 82 -17 17 -27 15 -71 -12z"/>
<path d="M4319 13604 c-19 -14 -53 -30 -77 -36 -53 -13 -62 -26 -32 -50 27
-22 71 -23 110 -3 34 18 50 43 50 79 0 36 -13 39 -51 10z"/>
<path d="M4816 13529 c-21 -16 -46 -29 -56 -29 -9 0 -25 -6 -36 -14 -18 -14
-17 -15 19 -30 32 -14 41 -14 70 -3 40 17 55 34 59 71 4 39 -10 40 -56 5z"/>
<path d="M5243 13428 c-29 -14 -29 -24 2 -44 30 -19 31 -19 40 24 7 35 -2 39
-42 20z"/>
<path d="M3168 13377 c-33 -13 -34 -25 -8 -77 26 -51 33 -54 58 -27 30 32 38
79 17 100 -18 19 -28 20 -67 4z"/>
<path d="M3660 13285 c-25 -13 -64 -29 -87 -35 -50 -13 -52 -22 -18 -55 63
-64 214 16 174 91 -15 29 -13 29 -69 -1z"/>
<path d="M4170 13199 c-24 -16 -54 -29 -66 -29 -13 0 -26 -5 -30 -11 -11 -19
22 -41 61 -41 53 0 89 30 93 75 2 21 0 37 -5 36 -4 0 -28 -14 -53 -30z"/>
<path d="M4694 13129 c-12 -11 -38 -26 -60 -34 -21 -7 -40 -17 -42 -23 -3 -10
30 -22 66 -22 29 0 82 51 82 79 0 27 -20 27 -46 0z"/>
<path d="M5146 13023 c-47 -24 -49 -26 -31 -39 36 -27 62 -18 73 26 5 22 9 40
8 40 0 -1 -23 -13 -50 -27z"/>
<path d="M3020 12995 c-25 -12 -62 -25 -83 -29 -82 -15 -93 -81 -17 -106 80
-26 156 5 186 77 19 44 18 50 -13 67 -25 13 -32 12 -73 -9z"/>
<path d="M3535 12895 c-22 -14 -52 -25 -66 -25 -14 0 -33 -6 -42 -13 -16 -11
-16 -14 -2 -34 23 -32 66 -38 119 -14 45 20 62 47 54 87 -5 26 -19 26 -63 -1z"/>
<path d="M4050 12805 c-19 -14 -43 -25 -53 -25 -10 0 -27 -5 -38 -11 -20 -10
-20 -11 -2 -24 49 -38 143 -1 143 56 0 35 -5 35 -50 4z"/>
<path d="M4536 12701 l-68 -36 33 -6 c18 -4 42 -4 54 1 23 9 59 55 53 69 -2 5
-34 -8 -72 -28z"/>
<path d="M5091 12646 c-7 -8 -36 -26 -64 -40 l-52 -24 30 -12 c47 -18 87 -2
97 39 11 41 6 58 -11 37z"/>
<path d="M3430 12515 c-19 -14 -55 -28 -82 -31 -51 -7 -60 -21 -32 -48 65 -66
204 16 156 91 -6 10 -17 7 -42 -12z"/>
<path d="M3930 12405 c-19 -14 -44 -25 -55 -25 -11 0 -26 -4 -34 -9 -19 -12
17 -31 59 -31 36 0 80 38 80 70 0 25 -7 25 -50 -5z"/>
<path d="M4445 12304 c-11 -9 -32 -20 -47 -26 -36 -13 -24 -32 15 -24 34 7 53
21 68 48 12 23 -7 24 -36 2z"/>
<path d="M4950 12210 c-19 -17 -40 -30 -47 -30 -6 0 -15 -4 -18 -10 -4 -6 10
-10 34 -10 46 0 81 26 81 60 0 27 -8 25 -50 -10z"/>
<path d="M3824 12005 c-10 -8 -36 -20 -58 -26 -47 -13 -36 -29 22 -32 32 -1
45 4 61 23 36 44 19 68 -25 35z"/>
<path d="M4310 11875 c-44 -24 -45 -24 -15 -25 31 0 75 24 75 41 0 13 -10 11
-60 -16z"/>
<path d="M4832 11785 c-55 -34 -55 -52 -1 -40 29 7 64 45 57 64 -1 6 -27 -5
-56 -24z"/>
<path d="M4764 11390 c-31 -12 -37 -27 -14 -33 14 -3 24 1 31 15 13 25 10 28
-17 18z"/>
<path d="M7317 15933 c-4 -3 -15 -7 -25 -8 -25 -1 -112 -45 -112 -56 0 -5 -17
-20 -39 -33 -46 -29 -56 -58 -31 -89 39 -48 155 -14 211 63 28 37 34 83 15
103 -12 11 -13 17 -3 20 7 3 7 6 1 6 -6 1 -14 -2 -17 -6z"/>
<path d="M7722 15873 c-13 -9 -37 -29 -52 -43 -16 -15 -43 -33 -60 -40 -24
-10 -30 -19 -30 -42 0 -61 105 -71 174 -17 35 27 68 93 64 127 -3 23 -8 27
-38 29 -20 2 -45 -5 -58 -14z"/>
<path d="M8182 15813 c-20 -21 -56 -46 -79 -57 -23 -10 -43 -26 -46 -35 -7
-28 11 -60 38 -67 94 -23 195 60 195 160 0 34 -1 36 -35 36 -27 0 -43 -8 -73
-37z"/>
<path d="M7074 15457 c-21 -19 -56 -39 -76 -46 -44 -14 -52 -24 -43 -50 16
-51 115 -39 168 19 29 32 36 77 15 98 -17 17 -20 16 -64 -21z"/>
<path d="M7582 15436 c-12 -6 -29 -21 -36 -32 -8 -11 -32 -26 -54 -32 -55 -17
-67 -34 -44 -62 47 -59 181 4 182 86 0 41 -18 56 -48 40z"/>
<path d="M9402 15421 c-11 -6 -10 -10 4 -15 20 -8 32 0 18 14 -5 5 -15 5 -22
1z"/>
<path d="M8040 15366 c-18 -18 -49 -39 -71 -45 -43 -13 -53 -23 -44 -50 7 -25
50 -42 83 -35 74 18 131 106 95 146 -22 24 -26 23 -63 -16z"/>
<path d="M8522 15313 c-21 -21 -59 -47 -84 -56 -37 -15 -45 -22 -41 -38 3 -11
15 -26 26 -34 83 -58 231 83 157 150 -19 17 -20 16 -58 -22z"/>
<path d="M8996 15264 c-14 -15 -26 -30 -26 -35 0 -4 -17 -13 -37 -20 -50 -15
-63 -27 -63 -54 0 -38 33 -58 88 -53 57 6 94 30 116 76 24 50 21 87 -9 100
-35 16 -39 16 -69 -14z"/>
<path d="M9786 15231 c-4 -5 -2 -12 3 -15 5 -4 12 -2 15 3 4 5 2 12 -3 15 -5
4 -12 2 -15 -3z"/>
<path d="M9490 15222 c0 -5 -11 -15 -25 -22 -13 -7 -23 -16 -20 -19 7 -13 -11
-28 -57 -49 -39 -17 -48 -26 -48 -46 0 -69 95 -89 168 -37 50 37 51 40 61 101
5 33 4 53 -3 59 -17 13 -76 24 -76 13z"/>
<path d="M6920 15025 c-13 -14 -41 -30 -62 -37 -52 -15 -68 -36 -43 -54 63
-47 183 25 160 96 -9 27 -27 25 -55 -5z"/>
<path d="M7410 14975 c-18 -19 -38 -35 -42 -35 -5 0 -25 -7 -45 -15 -35 -15
-35 -16 -18 -35 30 -34 90 -27 131 14 36 36 42 61 21 89 -11 16 -15 15 -47
-18z"/>
<path d="M7896 14921 c-15 -16 -48 -37 -72 -46 -48 -18 -52 -25 -28 -49 52
-52 178 25 160 98 -8 34 -26 33 -60 -3z"/>
<path d="M8389 14864 c-13 -14 -48 -37 -77 -50 l-53 -23 17 -26 c47 -71 192
14 170 100 -8 32 -26 32 -57 -1z"/>
<path d="M8865 14796 c-15 -19 -44 -41 -70 -51 -47 -17 -51 -24 -35 -55 24
-44 104 -29 153 29 31 38 35 71 9 94 -25 23 -27 22 -57 -17z"/>
<path d="M9346 14717 c-16 -21 -41 -38 -66 -46 -21 -6 -42 -16 -45 -21 -9 -15
14 -50 40 -60 79 -30 185 88 129 144 -22 23 -30 20 -58 -17z"/>
<path d="M9840 14648 c-12 -13 -28 -30 -36 -39 -8 -9 -32 -21 -54 -28 -44 -13
-48 -25 -24 -60 15 -20 23 -23 65 -19 55 6 85 27 106 76 16 39 11 62 -17 80
-17 10 -23 9 -40 -10z"/>
<path d="M6762 14591 c-18 -16 -47 -32 -64 -37 -41 -12 -46 -31 -12 -44 39
-15 79 -3 109 32 26 31 34 78 13 78 -7 -1 -28 -14 -46 -29z"/>
<path d="M10322 14573 c-8 -3 -22 -19 -33 -36 -13 -23 -30 -34 -61 -42 -38 -9
-43 -13 -40 -35 11 -100 172 -70 202 38 15 58 -18 95 -68 75z"/>
<path d="M7274 14549 c-10 -12 -43 -33 -73 -46 -50 -22 -53 -25 -38 -41 45
-44 147 7 147 75 0 38 -9 41 -36 12z"/>
<path d="M7755 14480 c-15 -16 -44 -35 -64 -41 -20 -6 -40 -15 -45 -20 -16
-15 26 -38 67 -39 53 0 100 45 95 92 -4 42 -18 44 -53 8z"/>
<path d="M11055 14490 c3 -5 8 -10 11 -10 2 0 4 5 4 10 0 6 -5 10 -11 10 -5 0
-7 -4 -4 -10z"/>
<path d="M10781 14468 c-12 -12 -23 -29 -26 -38 -3 -9 -25 -21 -49 -28 -50
-13 -64 -41 -40 -78 17 -26 45 -37 86 -36 67 2 128 69 128 141 0 31 -5 40 -25
49 -37 17 -51 15 -74 -10z"/>
<path d="M11087 14479 c7 -7 15 -10 18 -7 3 3 -2 9 -12 12 -14 6 -15 5 -6 -5z"/>
<path d="M8251 14416 c-18 -19 -53 -42 -77 -51 -38 -14 -43 -19 -32 -32 47
-57 158 -11 158 67 0 48 -14 52 -49 16z"/>
<path d="M8739 14337 c-20 -22 -48 -41 -71 -48 -61 -16 -44 -59 23 -59 68 0
122 78 90 129 -8 12 -16 7 -42 -22z"/>
<path d="M9230 14255 c-18 -19 -54 -42 -78 -52 l-45 -17 23 -18 c68 -55 174
23 142 105 -7 15 -12 13 -42 -18z"/>
<path d="M6616 14170 c-21 -16 -54 -34 -72 -40 -39 -13 -43 -25 -15 -40 60
-32 141 20 141 90 0 26 -8 25 -54 -10z"/>
<path d="M9709 14163 c-20 -21 -51 -43 -69 -48 -44 -13 -47 -27 -10 -49 40
-23 82 -14 115 26 27 32 32 65 12 91 -11 16 -15 14 -48 -20z"/>
<path d="M7134 14119 c-10 -12 -43 -32 -71 -45 -29 -13 -53 -26 -53 -29 0 -12
60 -33 81 -28 35 8 67 41 74 75 9 41 -7 54 -31 27z"/>
<path d="M10193 14072 c-20 -25 -44 -41 -69 -47 -45 -12 -52 -27 -25 -54 34
-34 86 -28 127 13 35 35 43 70 24 107 -15 27 -22 24 -57 -19z"/>
<path d="M7634 14049 c-10 -12 -43 -32 -71 -45 -29 -13 -53 -28 -53 -33 0 -5
15 -15 34 -21 53 -17 109 16 119 71 8 40 -6 53 -29 28z"/>
<path d="M10696 13995 c-9 -9 -21 -25 -26 -36 -6 -11 -30 -24 -55 -30 -25 -6
-48 -16 -51 -21 -11 -18 26 -57 60 -64 83 -15 164 99 107 150 -17 16 -20 16
-35 1z"/>
<path d="M8118 13961 c-18 -16 -51 -36 -73 -45 -38 -16 -39 -18 -21 -32 51
-37 136 10 136 75 0 17 -2 31 -5 31 -2 0 -19 -13 -37 -29z"/>
<path d="M8610 13876 c-12 -14 -41 -34 -64 -44 l-41 -20 27 -12 c52 -24 118
16 118 72 0 34 -10 35 -40 4z"/>
<path d="M11155 13866 c-16 -22 -42 -39 -68 -48 -33 -10 -41 -17 -39 -33 6
-35 33 -55 71 -55 45 1 77 18 102 56 31 48 24 95 -18 108 -17 5 -27 -1 -48
-28z"/>
<path d="M9086 13775 c-21 -19 -42 -33 -45 -31 -3 2 -14 -2 -24 -9 -17 -12
-15 -14 17 -25 30 -10 40 -9 65 6 30 18 56 68 45 85 -8 14 -16 10 -58 -26z"/>
<path d="M6476 13741 c-20 -16 -50 -33 -66 -36 -17 -4 -32 -11 -35 -16 -7 -11
37 -29 71 -29 34 0 84 51 84 84 0 33 -9 33 -54 -3z"/>
<path d="M9605 13700 c-16 -16 -48 -37 -73 -47 -40 -15 -43 -18 -26 -30 53
-39 134 5 134 72 0 19 -1 35 -3 35 -2 0 -16 -13 -32 -30z"/>
<path d="M6995 13680 c-10 -11 -40 -30 -66 -42 -52 -23 -59 -32 -33 -42 57
-22 134 23 134 78 0 31 -11 33 -35 6z"/>
<path d="M10102 13607 c-24 -25 -48 -40 -97 -58 l-30 -11 24 -19 c28 -23 52
-24 90 -4 32 16 51 58 42 93 l-6 24 -23 -25z"/>
<path d="M7493 13594 c-18 -13 -48 -31 -68 -40 -44 -18 -37 -34 14 -34 42 0
77 26 87 66 9 35 3 37 -33 8z"/>
<path d="M7996 13511 c-10 -11 -39 -30 -64 -43 l-47 -23 34 -3 c53 -5 77 5 95
42 9 19 16 37 16 40 0 12 -17 5 -34 -13z"/>
<path d="M10572 13490 c-13 -17 -40 -34 -63 -40 -21 -6 -39 -13 -39 -17 0 -15
38 -32 71 -33 39 0 77 31 80 65 6 62 -12 71 -49 25z"/>
<path d="M8485 13415 c-16 -14 -42 -30 -57 -36 -39 -16 -35 -29 7 -29 41 0 85
36 85 70 0 24 2 25 -35 -5z"/>
<path d="M6345 13315 c-16 -14 -45 -30 -63 -36 -44 -14 -36 -33 16 -37 34 -3
47 2 67 22 23 23 35 76 18 76 -5 -1 -21 -12 -38 -25z"/>
<path d="M8980 13318 c-14 -11 -37 -25 -52 -30 -39 -14 -35 -28 7 -28 37 0 85
38 85 66 0 19 -11 17 -40 -8z"/>
<path d="M6836 13219 c-21 -16 -47 -29 -57 -29 -34 0 -30 -19 6 -26 42 -8 77
12 100 56 20 39 4 39 -49 -1z"/>
<path d="M9476 13220 c-21 -16 -47 -32 -58 -35 -29 -10 -21 -25 13 -25 33 0
89 46 89 74 0 20 2 21 -44 -14z"/>
<path d="M7361 13146 c-18 -13 -46 -30 -62 -36 -38 -16 -37 -30 2 -30 41 0 66
15 85 51 20 40 15 44 -25 15z"/>
<path d="M9961 13114 c-24 -19 -50 -34 -57 -34 -8 0 -14 -4 -14 -10 0 -5 17
-10 38 -10 44 0 86 35 80 68 -3 18 -7 17 -47 -14z"/>
<path d="M7831 13034 c-37 -23 -49 -35 -39 -39 29 -11 108 38 108 67 0 13 -11
8 -69 -28z"/>
<path d="M10484 13029 c-3 -6 -26 -23 -50 -39 -45 -28 -47 -40 -7 -40 27 0 83
50 83 74 0 18 -16 21 -26 5z"/>
<path d="M8341 12944 c-37 -23 -49 -35 -39 -39 23 -9 65 11 84 40 9 14 15 27
13 29 -2 1 -28 -12 -58 -30z"/>
<path d="M6220 12884 c-19 -13 -49 -29 -67 -35 -43 -14 -42 -26 2 -35 39 -7
76 11 95 47 21 38 8 49 -30 23z"/>
<path d="M8841 12840 c-39 -27 -41 -30 -19 -30 14 0 36 13 53 30 37 38 22 38
-34 0z"/>
<path d="M6737 12800 c-14 -11 -45 -29 -69 -39 l-43 -19 29 -7 c41 -11 77 5
99 43 24 41 18 49 -16 22z"/>
<path d="M9350 12738 c-22 -13 -30 -23 -21 -26 7 -2 25 7 39 22 32 32 28 33
-18 4z"/>
<path d="M7220 12690 c-25 -17 -52 -30 -59 -30 -11 0 -12 -3 -3 -12 17 -17 71
2 95 34 29 39 18 42 -33 8z"/>
<path d="M9849 12631 c-13 -11 -19 -20 -13 -21 15 0 50 27 43 34 -3 4 -17 -2
-30 -13z"/>
<path d="M7746 12601 c-3 -5 -23 -17 -43 -27 -33 -16 -35 -19 -16 -22 28 -4
59 12 73 38 11 20 -3 30 -14 11z"/>
<path d="M8220 12479 c-27 -15 -30 -19 -14 -19 12 0 29 9 39 20 22 24 20 24
-25 -1z"/>
<path d="M6121 12477 c-7 -10 -41 -30 -74 -46 l-61 -29 42 -13 c36 -10 45 -10
67 5 27 18 48 59 43 84 -3 13 -5 13 -17 -1z"/>
<path d="M6590 12349 c-24 -16 -50 -29 -57 -29 -7 0 -13 -4 -13 -10 0 -5 17
-10 38 -10 39 0 72 24 85 63 8 23 0 21 -53 -14z"/>
<path d="M7100 12240 c-14 -11 -31 -20 -37 -20 -7 0 -13 -5 -13 -11 0 -15 50
-2 73 18 36 33 16 44 -23 13z"/>
<path d="M7604 12124 c-18 -14 -18 -15 4 -4 12 6 22 13 22 15 0 8 -5 6 -26
-11z"/>
<path d="M5976 12028 c-21 -15 -48 -28 -60 -28 -12 0 -27 -4 -35 -9 -10 -7 -8
-12 10 -25 54 -37 134 0 127 60 l-3 31 -39 -29z"/>
<path d="M6463 11900 c-52 -28 -57 -40 -19 -40 26 0 62 24 76 51 14 25 6 23
-57 -11z"/>
<path d="M6983 11788 c-13 -6 -23 -15 -23 -20 0 -10 36 7 45 22 7 12 7 12 -22
-2z"/>
<path d="M5867 11600 c-21 -15 -54 -31 -75 -35 l-37 -7 24 -19 c50 -40 119
-13 135 53 9 38 -4 40 -47 8z"/>
<path d="M6355 11460 l-50 -30 33 0 c31 0 72 28 72 50 0 13 4 14 -55 -20z"/>
<path d="M12035 13160 c-12 -18 -34 -34 -55 -40 -56 -16 -64 -24 -49 -48 8
-12 25 -26 40 -32 75 -31 163 70 115 133 -18 24 -28 22 -51 -13z"/>
<path d="M12527 13069 c-9 -6 -23 -22 -31 -37 -10 -20 -27 -31 -60 -40 -44
-11 -45 -12 -35 -41 6 -16 25 -36 43 -46 28 -15 38 -16 69 -6 65 22 109 103
79 147 -14 21 -47 33 -65 23z"/>
<path d="M11466 12801 c-10 -11 -38 -29 -63 -41 -49 -23 -48 -36 4 -46 27 -5
37 -1 63 24 18 18 30 41 30 56 0 31 -11 33 -34 7z"/>
<path d="M11945 12680 c-15 -16 -44 -35 -62 -41 -38 -12 -38 -27 0 -49 54 -30
128 38 106 98 -5 12 -10 22 -12 22 -2 0 -16 -13 -32 -30z"/>
<path d="M12429 12560 c-23 -25 -45 -40 -60 -40 -43 0 -52 -14 -29 -43 37 -47
116 -31 145 29 14 31 14 36 0 64 -8 16 -17 30 -18 30 -2 0 -19 -18 -38 -40z"/>
<path d="M12923 12468 c-6 -7 -13 -21 -16 -31 -7 -18 -32 -31 -80 -42 -23 -5
-27 -9 -22 -28 9 -30 51 -67 77 -67 85 0 151 108 96 160 -25 23 -41 25 -55 8z"/>
<path d="M10835 12404 c-31 -19 -35 -24 -19 -24 22 0 73 34 64 43 -3 3 -23 -5
-45 -19z"/>
<path d="M11361 12316 c-6 -8 -25 -19 -42 -26 -20 -9 -27 -16 -20 -23 20 -20
91 25 91 57 0 11 -18 6 -29 -8z"/>
<path d="M11841 12194 c-24 -19 -48 -34 -52 -34 -5 0 -9 -4 -9 -10 0 -16 67
-12 84 6 16 15 32 61 25 68 -2 2 -24 -11 -48 -30z"/>
<path d="M12340 12084 c-19 -19 -42 -34 -51 -34 -9 0 -22 -6 -28 -13 -8 -11
-5 -16 15 -25 36 -17 58 -15 88 9 20 16 26 29 26 60 0 21 -3 38 -7 38 -5 -1
-24 -17 -43 -35z"/>
<path d="M12842 11986 c-17 -19 -45 -37 -61 -41 -43 -9 -46 -21 -16 -51 22
-22 32 -25 63 -21 66 11 103 83 68 130 -17 23 -18 22 -54 -17z"/>
<path d="M13348 11862 c-8 -9 -18 -25 -21 -34 -6 -16 -16 -20 -83 -33 -17 -4
-20 -10 -16 -32 7 -39 29 -62 69 -69 42 -8 95 14 117 48 22 34 31 102 14 115
-26 21 -64 23 -80 5z"/>
<path d="M11240 11820 c-9 -6 -10 -10 -3 -10 6 0 15 5 18 10 8 12 4 12 -15 0z"/>
<path d="M11740 11710 c-29 -19 -38 -30 -27 -30 26 0 55 17 67 40 14 26 13 25
-40 -10z"/>
<path d="M12276 11632 c-5 -8 -28 -27 -53 -42 -37 -24 -41 -29 -25 -34 43 -14
98 31 90 72 -3 13 -5 14 -12 4z"/>
<path d="M12752 11503 c-18 -18 -47 -36 -63 -40 -41 -8 -44 -20 -10 -38 44
-22 69 -19 103 15 24 25 29 36 23 58 -10 41 -17 42 -53 5z"/>
<path d="M13243 11385 c-23 -25 -40 -35 -61 -35 -16 0 -35 -7 -42 -15 -10 -12
-7 -20 18 -45 34 -33 59 -37 102 -15 57 30 79 95 42 128 -24 22 -23 22 -59
-18z"/>
<path d="M12140 11125 c-24 -18 -29 -25 -16 -25 24 0 53 16 60 35 8 22 -5 19
-44 -10z"/>
<path d="M12677 11043 c-10 -11 -36 -28 -58 -39 -37 -16 -39 -19 -23 -31 26
-19 49 -16 79 10 20 16 26 30 23 51 -3 28 -3 28 -21 9z"/>
<path d="M13165 10930 c-17 -18 -48 -35 -72 -42 -24 -6 -43 -14 -43 -17 0 -19
49 -51 79 -51 43 0 68 14 87 51 13 26 13 36 4 60 -7 16 -16 29 -19 29 -4 0
-20 -14 -36 -30z"/>
<path d="M13669 10841 c-9 -9 -22 -26 -28 -38 -9 -17 -21 -23 -44 -23 -49 0
-69 -18 -59 -55 5 -21 19 -36 45 -48 33 -17 41 -17 80 -5 45 16 96 75 97 114
0 44 -63 83 -91 55z"/>
<path d="M12050 10665 c-19 -14 -29 -25 -23 -25 7 0 25 11 40 25 36 31 28 31
-17 0z"/>
<path d="M12570 10569 c-14 -11 -38 -26 -55 -34 l-30 -13 42 -1 c34 -1 46 4
62 25 36 45 25 58 -19 23z"/>
<path d="M6110 10560 c-11 -7 -6 -10 22 -10 20 0 40 5 43 10 8 13 -45 13 -65
0z"/>
<path d="M13080 10473 c-19 -17 -52 -36 -72 -44 -21 -7 -38 -16 -38 -19 0 -4
15 -15 33 -25 41 -22 81 -12 110 28 16 21 18 32 11 58 l-9 32 -35 -30z"/>
<path d="M13580 10380 c-11 -11 -20 -24 -20 -30 0 -5 -12 -12 -27 -16 -65 -14
-84 -26 -77 -48 12 -41 42 -61 89 -60 49 1 77 20 101 66 23 45 18 75 -16 93
-28 14 -31 14 -50 -5z"/>
<path d="M5578 10306 c-15 -13 -45 -27 -67 -31 -48 -8 -52 -24 -11 -48 56 -34
120 1 120 65 0 44 -5 46 -42 14z"/>
<path d="M6046 10142 c-44 -23 -47 -27 -29 -35 26 -11 70 8 91 41 19 29 4 28
-62 -6z"/>
<path d="M12479 10114 c-7 -8 -26 -22 -42 -30 -33 -18 -29 -29 7 -20 37 9 86
66 57 66 -5 0 -14 -7 -22 -16z"/>
<path d="M12984 10015 c-16 -15 -46 -34 -68 -43 l-38 -15 23 -13 c69 -38 158
25 120 84 -6 11 -15 8 -37 -13z"/>
<path d="M6570 10000 c-9 -6 -10 -10 -3 -10 6 0 15 5 18 10 8 12 4 12 -15 0z"/>
<path d="M13483 9917 c-19 -23 -44 -38 -75 -47 -27 -7 -48 -17 -48 -22 0 -20
59 -68 85 -68 34 0 80 24 99 52 22 30 20 81 -2 101 -25 23 -26 22 -59 -16z"/>
<path d="M5956 9706 l-59 -30 29 -13 c16 -6 35 -12 42 -13 20 0 62 47 62 70 0
25 -1 24 -74 -14z"/>
<path d="M12360 9643 c-31 -19 -40 -28 -28 -31 23 -4 55 14 68 38 13 25 14 25
-40 -7z"/>
<path d="M6472 9565 c-24 -13 -37 -25 -30 -28 17 -6 51 7 67 27 22 26 10 26
-37 1z"/>
<path d="M12876 9554 c-22 -19 -47 -34 -57 -34 -26 0 -32 -18 -10 -29 50 -27
121 10 121 63 0 37 -11 37 -54 0z"/>
<path d="M13385 9466 c-19 -20 -48 -38 -63 -42 -62 -14 -61 -13 -48 -39 25
-53 98 -60 151 -14 41 36 48 84 16 113 -19 17 -21 17 -56 -18z"/>
<path d="M6970 9425 c-16 -9 -19 -14 -9 -15 8 0 24 7 35 15 24 18 7 19 -26 0z"/>
<path d="M5910 9290 c-14 -11 -45 -25 -69 -32 l-44 -11 27 -24 c15 -12 38 -23
52 -23 32 0 88 54 80 76 -3 9 -6 20 -6 25 0 14 -13 10 -40 -11z"/>
<path d="M12250 9188 c-40 -25 -42 -28 -18 -28 29 0 73 31 67 47 -2 5 -24 -3
-49 -19z"/>
<path d="M6385 9132 c-27 -15 -52 -28 -55 -30 -9 -6 25 -22 47 -22 20 0 73 51
73 71 0 13 -10 11 -65 -19z"/>
<path d="M12780 9110 c-19 -16 -50 -35 -69 -41 l-34 -12 24 -13 c30 -16 51
-17 82 -3 30 14 49 52 39 78 -7 19 -9 18 -42 -9z"/>
<path d="M6877 8985 c-29 -17 -35 -24 -23 -28 23 -9 63 8 76 33 14 27 -3 25
-53 -5z"/>
<path d="M7375 8840 c-8 -13 5 -13 25 0 13 8 13 10 -2 10 -9 0 -20 -4 -23 -10z"/>
<path d="M2702 11860 c-18 -11 -37 -18 -42 -15 -6 3 -26 3 -46 -1 -66 -12 -64
-73 3 -101 87 -36 202 46 158 113 -19 29 -30 30 -73 4z"/>
<path d="M2629 11489 c-14 -11 -42 -19 -69 -19 -59 -2 -74 -10 -78 -41 -4 -34
47 -79 90 -79 65 0 129 53 128 107 0 10 -11 25 -23 35 -22 15 -25 15 -48 -3z"/>
<path d="M3135 11340 c-17 -11 -48 -21 -69 -24 -49 -6 -53 -11 -32 -35 26 -28
69 -35 104 -17 32 16 42 34 42 72 0 29 -6 29 -45 4z"/>
<path d="M3620 11195 c-25 -14 -52 -25 -60 -25 -13 0 -13 -1 0 -10 27 -18 75
-11 98 13 22 23 29 47 15 47 -5 -1 -28 -12 -53 -25z"/>
<path d="M2547 11110 c-14 -12 -38 -19 -58 -18 -51 2 -76 -10 -84 -39 -21 -83
162 -113 205 -34 18 35 12 77 -14 94 -22 15 -26 15 -49 -3z"/>
<path d="M3045 10944 c-22 -13 -55 -24 -72 -24 -18 0 -33 -4 -33 -9 0 -18 53
-51 80 -51 40 0 80 35 80 70 0 40 -9 42 -55 14z"/>
<path d="M3545 10800 c-22 -10 -49 -21 -59 -25 -25 -7 -10 -23 31 -31 26 -5
37 -1 57 19 24 24 35 58 19 56 -5 0 -26 -9 -48 -19z"/>
<path d="M2480 10725 c-14 -8 -43 -15 -65 -15 -47 0 -60 -7 -69 -38 -18 -55
58 -102 133 -82 72 19 108 100 59 134 -27 19 -26 19 -58 1z"/>
<path d="M4050 10660 c-14 -11 -33 -20 -42 -20 -10 0 -18 -4 -18 -10 0 -10 19
-14 55 -11 20 2 55 35 55 52 0 15 -24 10 -50 -11z"/>
<path d="M2975 10550 c-16 -11 -44 -20 -62 -20 -43 0 -47 -11 -17 -43 28 -30
61 -34 103 -12 33 17 43 37 35 71 -7 29 -20 30 -59 4z"/>
<path d="M4545 10532 c-27 -15 -52 -28 -55 -30 -13 -9 29 -22 55 -17 34 6 50
20 60 53 8 28 1 28 -60 -6z"/>
<path d="M3475 10400 c-16 -11 -40 -20 -52 -20 -32 0 -36 -16 -8 -34 32 -21
58 -20 84 2 22 18 33 62 16 68 -5 2 -23 -5 -40 -16z"/>
<path d="M2440 10352 c-8 -3 -21 -10 -29 -16 -8 -6 -34 -12 -59 -12 -46 -2
-72 -20 -72 -51 0 -19 57 -70 87 -78 66 -16 154 52 139 109 -7 27 -44 55 -66
48z"/>
<path d="M3958 10243 c-53 -28 -54 -43 -4 -43 35 0 66 25 66 53 0 22 -5 21
-62 -10z"/>
<path d="M2925 10160 c-18 -12 -47 -20 -72 -20 -51 0 -54 -11 -14 -51 38 -37
82 -39 116 -4 25 24 31 49 19 79 -8 20 -13 20 -49 -4z"/>
<path d="M4490 10128 c-14 -11 -38 -25 -53 -30 -39 -14 -28 -32 20 -36 33 -2
44 1 57 20 16 23 22 68 9 68 -5 -1 -19 -10 -33 -22z"/>
<path d="M3415 9999 c-17 -10 -45 -19 -63 -21 -38 -3 -40 -13 -9 -39 57 -48
146 0 121 65 -8 20 -11 19 -49 -5z"/>
<path d="M2368 9949 c-24 -18 -28 -18 -28 -4 0 12 -7 15 -27 12 -52 -9 -72
-19 -66 -33 3 -8 -1 -14 -11 -14 -17 0 -22 -36 -8 -55 28 -39 145 -60 192 -35
26 14 53 66 45 89 -7 24 -43 61 -58 61 -7 0 -24 -10 -39 -21z"/>
<path d="M3910 9845 c-25 -13 -54 -27 -65 -30 -20 -6 -20 -7 -1 -21 32 -23 83
-18 102 10 8 14 14 34 12 45 -3 19 -4 19 -48 -4z"/>
<path d="M2875 9769 c-17 -11 -48 -19 -72 -19 -53 0 -56 -18 -14 -61 20 -20
39 -29 61 -29 22 0 41 9 61 29 33 34 36 51 12 79 -18 20 -18 20 -48 1z"/>
<path d="M4420 9710 c-14 -11 -42 -25 -63 -31 -38 -10 -38 -11 -21 -30 40 -45
124 -10 124 51 0 35 -6 37 -40 10z"/>
<path d="M3368 9599 c-16 -11 -44 -22 -63 -23 -48 -4 -51 -10 -22 -40 33 -33
88 -35 117 -6 21 21 23 32 14 68 -8 27 -12 27 -46 1z"/>
<path d="M3860 9437 c-19 -13 -47 -27 -62 -31 -33 -8 -36 -21 -9 -36 56 -29
115 3 109 59 l-3 31 -35 -23z"/>
<path d="M4351 9284 c-19 -13 -47 -26 -63 -29 -33 -8 -35 -16 -10 -38 25 -23
78 -21 102 3 20 20 24 42 12 71 -6 15 -11 14 -41 -7z"/>
<path d="M2684 8918 c5 -63 92 -93 153 -52 14 9 21 19 17 24 -7 6 -62 25 -160
55 -8 2 -11 -8 -10 -27z"/>
<path d="M3211 8751 l-34 -6 27 -32 c35 -42 76 -44 113 -7 26 26 26 27 8 40
-19 14 -55 16 -114 5z"/>
<path d="M3755 8593 c-22 -12 -50 -23 -62 -23 -30 0 -29 -14 3 -39 61 -48 135
2 106 70 -6 13 -12 12 -47 -8z"/>
<path d="M2761 8576 c-8 -9 -26 -12 -63 -8 -45 4 -50 3 -45 -12 4 -10 1 -16
-8 -16 -25 0 -18 -54 10 -80 14 -13 25 -20 25 -15 0 5 5 4 12 -3 7 -7 34 -12
61 -12 40 0 53 5 78 29 35 35 39 81 9 111 -23 23 -62 26 -79 6z"/>
<path d="M4237 8435 c-15 -14 -39 -25 -52 -25 -30 0 -39 -14 -25 -40 17 -31
43 -40 82 -30 43 12 66 49 52 87 -12 35 -24 37 -57 8z"/>
<path d="M3254 8369 c-16 -11 -42 -19 -59 -18 -53 2 -57 1 -46 -20 6 -10 8
-21 5 -24 -11 -11 51 -47 82 -47 60 0 96 66 61 112 -12 16 -15 15 -43 -3z"/>
<path d="M4725 8312 c-5 -4 -15 -16 -21 -27 -8 -14 -22 -20 -45 -21 -47 0 -58
-9 -53 -42 12 -72 116 -97 170 -41 34 35 39 103 9 125 -21 15 -44 18 -60 6z"/>
<path d="M3711 8174 c-24 -13 -52 -24 -63 -24 -24 0 -23 -12 7 -44 29 -31 63
-33 99 -5 28 22 34 55 14 81 -12 14 -17 13 -57 -8z"/>
<path d="M4215 8027 c-9 -22 -56 -47 -90 -47 -23 0 -25 -3 -20 -22 23 -76 127
-75 153 0 8 25 6 34 -13 58 -21 26 -24 27 -30 11z"/>
<path d="M3229 7964 c-9 -11 -26 -15 -62 -12 l-50 3 -3 -34 c-5 -44 15 -74 59
-88 45 -14 80 -7 105 21 31 34 35 70 11 100 -23 30 -41 33 -60 10z"/>
<path d="M4682 7893 c-7 -3 -19 -18 -27 -34 -12 -23 -22 -29 -48 -29 -40 0
-51 -8 -55 -39 -2 -15 6 -33 24 -52 23 -24 36 -29 75 -29 41 0 51 4 78 35 23
26 31 45 31 73 0 20 -4 42 -8 47 -10 15 -55 33 -70 28z"/>
<path d="M3710 7780 c0 -15 -56 -40 -90 -40 -35 0 -34 2 -14 -39 20 -40 52
-55 97 -47 52 10 73 68 41 114 -16 23 -34 29 -34 12z"/>
<path d="M4156 7585 c-13 -20 -25 -25 -56 -25 -34 0 -40 -3 -40 -21 0 -34 19
-60 56 -75 30 -13 38 -12 62 0 16 8 35 22 42 31 21 25 18 82 -5 100 -28 21
-40 19 -59 -10z"/>
<path d="M4617 7455 c-15 -6 -24 -15 -20 -20 5 -5 0 -3 -9 4 -22 17 -41 5 -32
-21 5 -18 3 -20 -15 -15 -17 4 -24 0 -32 -19 -17 -45 -11 -68 26 -92 45 -32
92 -34 130 -9 28 20 47 42 51 60 1 4 3 9 4 12 14 28 -11 79 -48 97 -21 11 -34
12 -55 3z"/>
<path d="M3657 7359 c-8 -13 -23 -19 -49 -19 -33 0 -40 -4 -51 -32 -12 -29
-12 -35 2 -46 13 -11 13 -12 1 -6 -8 4 -3 -5 11 -20 20 -19 41 -28 78 -33 47
-5 52 -4 81 27 36 39 41 89 10 120 -11 11 -23 20 -27 21 -5 0 -16 2 -26 4 -10
2 -23 -5 -30 -16z"/>
<path d="M13145 8460 l-40 -7 35 -1 c19 -1 42 3 50 8 16 11 14 11 -45 0z"/>
<path d="M12033 8296 c-59 -35 -65 -46 -27 -46 36 0 61 16 79 50 19 37 14 36
-52 -4z"/>
<path d="M6246 8249 c-22 -16 -50 -29 -62 -29 -13 0 -25 -4 -29 -9 -8 -15 29
-31 69 -31 41 0 70 33 64 74 l-3 25 -39 -30z"/>
<path d="M12572 8230 c-19 -15 -54 -36 -80 -45 l-45 -18 22 -18 c69 -56 175
13 143 93 -6 14 -11 12 -40 -12z"/>
<path d="M13065 8140 c-26 -27 -48 -40 -65 -40 -14 0 -35 -6 -45 -14 -18 -13
-18 -15 -1 -40 9 -15 28 -31 42 -37 75 -28 188 68 154 130 -22 43 -44 43 -85
1z"/>
<path d="M6721 8090 c-13 -11 -29 -20 -37 -20 -8 0 -14 -4 -14 -10 0 -18 66
-11 83 8 36 40 10 57 -32 22z"/>
<path d="M7217 7945 c-39 -23 -40 -39 -2 -25 22 8 51 38 44 44 -2 3 -21 -6
-42 -19z"/>
<path d="M11418 7936 c-42 -23 -51 -41 -15 -31 23 7 79 56 62 54 -6 -1 -27
-11 -47 -23z"/>
<path d="M11934 7861 c-21 -16 -50 -32 -63 -36 -24 -7 -24 -8 -6 -21 39 -29
97 -6 116 44 15 39 -3 45 -47 13z"/>
<path d="M6191 7816 c-7 -8 -36 -26 -64 -40 l-52 -24 36 -17 c32 -15 40 -16
64 -4 30 15 50 62 36 86 -6 12 -9 12 -20 -1z"/>
<path d="M7705 7809 c-26 -16 -27 -19 -9 -19 11 0 29 9 39 20 23 25 9 25 -30
-1z"/>
<path d="M12456 7791 c-16 -17 -45 -35 -65 -42 -20 -6 -42 -12 -49 -15 -18 -5
5 -39 36 -54 70 -32 163 64 119 124 -11 16 -15 15 -41 -13z"/>
<path d="M12949 7708 c-20 -23 -44 -36 -77 -43 -40 -8 -47 -14 -50 -35 -5 -43
30 -70 90 -70 45 0 54 4 89 39 32 32 39 46 39 78 0 33 -4 42 -25 51 -34 16
-32 17 -66 -20z"/>
<path d="M6676 7651 c-3 -5 -21 -16 -41 -25 -41 -20 -46 -36 -10 -36 28 0 65
32 65 55 0 17 -6 19 -14 6z"/>
<path d="M10795 7579 c-27 -17 -28 -19 -8 -19 12 0 29 7 37 16 31 30 16 32
-29 3z"/>
<path d="M11310 7495 c-19 -14 -39 -25 -46 -25 -7 0 -16 -4 -19 -10 -4 -6 8
-10 30 -10 35 0 85 35 85 60 0 16 -13 12 -50 -15z"/>
<path d="M7125 7485 c-34 -21 -37 -25 -17 -25 30 0 58 15 66 35 8 21 -2 19
-49 -10z"/>
<path d="M11845 7439 c-11 -12 -44 -33 -72 -46 -29 -14 -51 -29 -48 -33 3 -5
21 -14 40 -20 27 -9 39 -8 63 4 35 18 56 63 44 95 l-8 22 -19 -22z"/>
<path d="M12330 7350 c-15 -21 -36 -34 -66 -41 -52 -13 -59 -21 -44 -49 25
-47 95 -50 143 -6 33 31 43 70 27 102 -18 32 -34 30 -60 -6z"/>
<path d="M6105 7350 c-10 -11 -33 -22 -51 -26 -44 -8 -50 -19 -22 -38 49 -35
118 -1 118 57 0 32 -19 35 -45 7z"/>
<path d="M7615 7349 c-27 -17 -28 -19 -8 -19 12 0 29 7 37 16 31 30 16 32 -29
3z"/>
<path d="M12824 7277 c-21 -18 -58 -39 -81 -45 -33 -10 -43 -18 -48 -41 -7
-32 10 -68 36 -76 16 -5 79 -7 121 -3 26 2 68 40 75 68 10 39 8 99 -3 110 -25
25 -60 20 -100 -13z"/>
<path d="M10185 7225 c-30 -18 -35 -24 -20 -24 22 -1 73 34 64 43 -3 3 -23 -6
-44 -19z"/>
<path d="M8104 7215 c-10 -8 -14 -15 -8 -15 5 0 19 7 30 15 10 8 14 15 8 15
-5 0 -19 -7 -30 -15z"/>
<path d="M6565 7181 c-27 -14 -52 -27 -55 -29 -8 -5 24 -22 42 -22 24 0 71 43
67 62 -3 13 -11 12 -54 -11z"/>
<path d="M10705 7148 c-16 -13 -40 -28 -54 -34 -23 -10 -24 -13 -8 -19 24 -10
72 12 87 41 18 34 8 38 -25 12z"/>
<path d="M8596 7095 c-16 -12 -17 -15 -4 -15 8 0 21 7 28 15 16 19 1 19 -24 0z"/>
<path d="M11216 7071 c-10 -11 -39 -30 -64 -42 l-47 -22 29 -12 c38 -16 72 -8
96 23 20 25 27 72 12 72 -5 0 -17 -9 -26 -19z"/>
<path d="M7067 7041 c-25 -16 -26 -19 -10 -25 16 -7 43 15 43 36 0 11 -1 11
-33 -11z"/>
<path d="M9085 6984 c-31 -19 -35 -24 -19 -24 22 0 73 34 64 43 -3 3 -23 -5
-45 -19z"/>
<path d="M11706 6981 c-15 -15 -45 -33 -66 -40 -43 -13 -50 -26 -22 -47 28
-22 77 -17 111 12 25 21 31 33 31 65 0 47 -15 50 -54 10z"/>
<path d="M12200 6905 c-22 -19 -57 -37 -76 -41 -40 -7 -48 -17 -40 -48 6 -26
44 -46 84 -46 56 0 122 64 122 118 0 17 -28 52 -42 52 -4 0 -25 -16 -48 -35z"/>
<path d="M9575 6875 c-37 -23 -38 -25 -14 -25 14 0 36 11 49 25 30 32 16 31
-35 0z"/>
<path d="M10072 6781 c-36 -24 -48 -37 -37 -39 30 -6 64 8 81 33 27 41 11 44
-44 6z"/>
<path d="M10595 6704 c-16 -13 -45 -30 -62 -36 -39 -14 -42 -25 -8 -34 54 -14
111 27 103 75 -3 19 -4 18 -33 -5z"/>
<path d="M8530 6660 c-9 -6 -10 -10 -3 -10 6 0 15 5 18 10 8 12 4 12 -15 0z"/>
<path d="M11104 6629 c-10 -12 -43 -33 -73 -46 -50 -22 -53 -25 -38 -41 21
-21 77 -21 110 1 28 18 44 67 30 92 -8 14 -12 13 -29 -6z"/>
<path d="M11580 6545 c-19 -19 -42 -35 -51 -35 -10 0 -30 -5 -44 -12 -28 -13
-27 -42 4 -66 26 -22 98 -9 132 24 31 30 40 89 17 112 -17 17 -20 16 -58 -23z"/>
<path d="M8987 6531 c-31 -19 -43 -30 -34 -34 19 -7 57 13 75 41 18 27 18 27
-41 -7z"/>
<path d="M12074 6482 c-21 -21 -55 -43 -82 -52 -41 -13 -47 -19 -50 -46 -6
-61 86 -96 156 -60 86 45 112 156 42 183 -29 11 -33 9 -66 -25z"/>
<path d="M9466 6425 c-57 -32 -59 -34 -33 -40 18 -5 36 -2 52 9 23 15 51 54
43 61 -2 2 -30 -12 -62 -30z"/>
<path d="M9990 6349 c-14 -11 -40 -27 -57 -35 -41 -18 -42 -30 -4 -39 38 -8
65 7 81 44 17 42 9 54 -20 30z"/>
<path d="M10478 6261 c-18 -16 -51 -36 -72 -45 -37 -15 -39 -18 -23 -33 10
-10 32 -17 53 -17 47 0 84 39 84 90 0 19 -2 34 -5 34 -2 0 -19 -13 -37 -29z"/>
<path d="M10965 6180 c-16 -17 -47 -36 -68 -42 -22 -7 -42 -18 -45 -26 -8 -22
35 -52 75 -52 67 0 131 98 91 138 -17 17 -21 16 -53 -18z"/>
<path d="M11449 6112 c-24 -21 -63 -44 -86 -50 -40 -12 -42 -15 -39 -44 6 -48
41 -71 95 -64 109 15 172 143 92 186 -15 8 -27 2 -62 -28z"/>
<path d="M10351 5816 c-19 -20 -48 -37 -67 -40 -38 -8 -48 -18 -39 -45 8 -25
55 -44 88 -36 34 9 87 69 87 98 -1 20 -21 57 -32 57 -2 0 -19 -15 -37 -34z"/>
<path d="M10831 5740 c-22 -22 -48 -40 -56 -40 -28 0 -65 -24 -65 -42 0 -10 7
-30 16 -43 24 -36 100 -36 144 1 35 30 60 73 60 104 0 19 -34 59 -51 60 -4 0
-25 -18 -48 -40z"/>
<path d="M5978 6453 c-36 -27 -45 -52 -32 -87 15 -39 85 4 83 52 0 15 -4 35
-7 45 -7 16 -11 16 -44 -10z"/>
<path d="M6455 6300 c-10 -11 -34 -25 -54 -31 -53 -17 -55 -19 -30 -45 25 -26
49 -30 82 -13 30 16 37 28 37 66 0 40 -12 48 -35 23z"/>
<path d="M6906 6139 c-21 -16 -47 -29 -57 -29 -28 0 -32 -17 -7 -34 24 -17 65
-21 84 -8 26 17 45 85 27 95 -5 2 -26 -9 -47 -24z"/>
<path d="M7389 6012 c-13 -11 -41 -28 -62 -39 l-39 -19 27 -18 c38 -25 82 -13
102 29 10 22 12 38 6 49 -9 16 -11 15 -34 -2z"/>
<path d="M7854 5875 c-17 -13 -43 -27 -57 -30 -38 -10 -42 -22 -13 -40 38 -25
83 -12 103 30 10 21 12 38 7 48 -8 14 -13 13 -40 -8z"/>
<path d="M6378 5859 c-17 -22 -35 -33 -63 -38 -35 -6 -40 -9 -37 -31 5 -39 49
-73 86 -66 40 8 86 58 86 94 -1 23 -29 72 -43 72 -2 0 -15 -14 -29 -31z"/>
<path d="M8347 5773 c-17 -20 -64 -46 -101 -58 -18 -5 -18 -6 -1 -25 24 -27
68 -25 100 3 22 18 26 29 23 61 -3 38 -3 38 -21 19z"/>
<path d="M6840 5706 c-24 -25 -44 -36 -69 -38 -30 -2 -35 -7 -33 -23 11 -67
75 -87 130 -40 40 34 48 69 24 107 l-19 29 -33 -35z"/>
<path d="M8810 5655 c-13 -13 -43 -32 -67 -41 -47 -18 -51 -25 -27 -48 27 -28
91 -16 121 23 14 18 17 77 4 85 -4 3 -18 -6 -31 -19z"/>
<path d="M7302 5566 c-11 -14 -39 -30 -61 -36 -34 -9 -41 -15 -41 -35 0 -53
78 -72 128 -30 35 29 41 49 30 93 -10 38 -27 41 -56 8z"/>
<path d="M9280 5555 c-19 -20 -51 -40 -72 -46 -21 -5 -38 -14 -38 -20 0 -23
21 -47 45 -53 25 -6 89 16 101 36 16 25 20 66 9 91 l-11 27 -34 -35z"/>
<path d="M7766 5433 c-14 -15 -44 -32 -68 -38 -35 -8 -42 -14 -40 -30 4 -27
39 -55 68 -55 62 0 117 64 99 116 -14 38 -29 40 -59 7z"/>
<path d="M8235 5326 c-20 -26 -40 -40 -71 -47 -36 -9 -44 -16 -44 -34 0 -76
110 -82 159 -10 25 36 24 69 -4 107 -12 18 -14 18 -40 -16z"/>
<path d="M8693 5207 c-17 -19 -47 -37 -69 -42 -32 -8 -40 -15 -42 -36 -10 -83
119 -88 168 -7 24 40 25 66 4 96 -20 29 -24 28 -61 -11z"/>
<path d="M9166 5124 c-14 -15 -26 -31 -26 -35 0 -5 -21 -14 -46 -20 -49 -13
-64 -33 -56 -76 5 -27 21 -37 71 -47 61 -11 141 62 141 128 0 35 -10 56 -26
56 -8 0 -14 5 -14 10 0 17 -16 11 -44 -16z"/>
</g>
</svg>
